<mxfile host="Electron" modified="2024-08-02T08:21:14.821Z" agent="Mozilla/5.0 (Windows NT 10.0; Win64; x64) AppleWebKit/537.36 (KHTML, like Gecko) draw.io/22.0.3 Chrome/114.0.5735.289 Electron/25.8.4 Safari/537.36" etag="3G3QHS_Casc_Z_IT-pQx" version="22.0.3" type="device">
  <diagram name="Page-1" id="LSbP4V47tpOACBhXlLEB">
    <mxGraphModel dx="619" dy="529" grid="1" gridSize="10" guides="1" tooltips="1" connect="1" arrows="1" fold="1" page="1" pageScale="1" pageWidth="700" pageHeight="210" math="0" shadow="0">
      <root>
        <mxCell id="0" />
        <mxCell id="1" parent="0" />
        <mxCell id="43nEJZOgeesaap-Se7oP-12" style="rounded=0;orthogonalLoop=1;jettySize=auto;html=1;" edge="1" parent="1" source="43nEJZOgeesaap-Se7oP-1" target="43nEJZOgeesaap-Se7oP-2">
          <mxGeometry relative="1" as="geometry" />
        </mxCell>
        <mxCell id="43nEJZOgeesaap-Se7oP-13" style="rounded=0;orthogonalLoop=1;jettySize=auto;html=1;" edge="1" parent="1" source="43nEJZOgeesaap-Se7oP-1" target="43nEJZOgeesaap-Se7oP-5">
          <mxGeometry relative="1" as="geometry" />
        </mxCell>
        <mxCell id="43nEJZOgeesaap-Se7oP-1" value="13" style="ellipse;whiteSpace=wrap;html=1;aspect=fixed;fillColor=#000000;fontColor=#FFFFFF;" vertex="1" parent="1">
          <mxGeometry x="320" width="40" height="40" as="geometry" />
        </mxCell>
        <mxCell id="43nEJZOgeesaap-Se7oP-2" value="8" style="ellipse;whiteSpace=wrap;html=1;aspect=fixed;fillColor=#EA6B66;" vertex="1" parent="1">
          <mxGeometry x="240" y="50" width="40" height="40" as="geometry" />
        </mxCell>
        <mxCell id="43nEJZOgeesaap-Se7oP-3" value="1" style="ellipse;whiteSpace=wrap;html=1;aspect=fixed;fillColor=#000000;fontColor=#FFFFFF;" vertex="1" parent="1">
          <mxGeometry x="200" y="100" width="40" height="40" as="geometry" />
        </mxCell>
        <mxCell id="43nEJZOgeesaap-Se7oP-4" value="11" style="ellipse;whiteSpace=wrap;html=1;aspect=fixed;fillColor=#000000;fontColor=#FFFFFF;" vertex="1" parent="1">
          <mxGeometry x="280" y="100" width="40" height="40" as="geometry" />
        </mxCell>
        <mxCell id="43nEJZOgeesaap-Se7oP-5" value="17" style="ellipse;whiteSpace=wrap;html=1;aspect=fixed;fillColor=#EA6B66;" vertex="1" parent="1">
          <mxGeometry x="400" y="50" width="40" height="40" as="geometry" />
        </mxCell>
        <mxCell id="43nEJZOgeesaap-Se7oP-6" value="15" style="ellipse;whiteSpace=wrap;html=1;aspect=fixed;fillColor=#000000;fontColor=#FFFFFF;" vertex="1" parent="1">
          <mxGeometry x="360" y="100" width="40" height="40" as="geometry" />
        </mxCell>
        <mxCell id="43nEJZOgeesaap-Se7oP-7" value="25" style="ellipse;whiteSpace=wrap;html=1;aspect=fixed;fillColor=#000000;fontColor=#FFFFFF;" vertex="1" parent="1">
          <mxGeometry x="440" y="100" width="40" height="40" as="geometry" />
        </mxCell>
        <mxCell id="43nEJZOgeesaap-Se7oP-8" value="22" style="ellipse;whiteSpace=wrap;html=1;aspect=fixed;fillColor=#EA6B66;" vertex="1" parent="1">
          <mxGeometry x="400" y="150" width="40" height="40" as="geometry" />
        </mxCell>
        <mxCell id="43nEJZOgeesaap-Se7oP-9" value="27" style="ellipse;whiteSpace=wrap;html=1;aspect=fixed;fillColor=#EA6B66;" vertex="1" parent="1">
          <mxGeometry x="480" y="150" width="40" height="40" as="geometry" />
        </mxCell>
        <mxCell id="43nEJZOgeesaap-Se7oP-11" value="6" style="ellipse;whiteSpace=wrap;html=1;aspect=fixed;fillColor=#EA6B66;" vertex="1" parent="1">
          <mxGeometry x="240" y="150" width="40" height="40" as="geometry" />
        </mxCell>
        <mxCell id="43nEJZOgeesaap-Se7oP-14" style="rounded=0;orthogonalLoop=1;jettySize=auto;html=1;" edge="1" parent="1" source="43nEJZOgeesaap-Se7oP-2" target="43nEJZOgeesaap-Se7oP-3">
          <mxGeometry relative="1" as="geometry">
            <mxPoint x="315" y="43" as="sourcePoint" />
            <mxPoint x="285" y="67" as="targetPoint" />
          </mxGeometry>
        </mxCell>
        <mxCell id="43nEJZOgeesaap-Se7oP-15" style="rounded=0;orthogonalLoop=1;jettySize=auto;html=1;" edge="1" parent="1" source="43nEJZOgeesaap-Se7oP-2" target="43nEJZOgeesaap-Se7oP-4">
          <mxGeometry relative="1" as="geometry">
            <mxPoint x="325" y="53" as="sourcePoint" />
            <mxPoint x="295" y="77" as="targetPoint" />
          </mxGeometry>
        </mxCell>
        <mxCell id="43nEJZOgeesaap-Se7oP-16" style="rounded=0;orthogonalLoop=1;jettySize=auto;html=1;" edge="1" parent="1" source="43nEJZOgeesaap-Se7oP-5" target="43nEJZOgeesaap-Se7oP-6">
          <mxGeometry relative="1" as="geometry">
            <mxPoint x="335" y="63" as="sourcePoint" />
            <mxPoint x="305" y="87" as="targetPoint" />
          </mxGeometry>
        </mxCell>
        <mxCell id="43nEJZOgeesaap-Se7oP-17" style="rounded=0;orthogonalLoop=1;jettySize=auto;html=1;" edge="1" parent="1" source="43nEJZOgeesaap-Se7oP-5" target="43nEJZOgeesaap-Se7oP-7">
          <mxGeometry relative="1" as="geometry">
            <mxPoint x="345" y="73" as="sourcePoint" />
            <mxPoint x="315" y="97" as="targetPoint" />
          </mxGeometry>
        </mxCell>
        <mxCell id="43nEJZOgeesaap-Se7oP-18" style="rounded=0;orthogonalLoop=1;jettySize=auto;html=1;" edge="1" parent="1" source="43nEJZOgeesaap-Se7oP-3" target="43nEJZOgeesaap-Se7oP-11">
          <mxGeometry relative="1" as="geometry">
            <mxPoint x="355" y="83" as="sourcePoint" />
            <mxPoint x="325" y="107" as="targetPoint" />
          </mxGeometry>
        </mxCell>
        <mxCell id="43nEJZOgeesaap-Se7oP-19" style="rounded=0;orthogonalLoop=1;jettySize=auto;html=1;" edge="1" parent="1" source="43nEJZOgeesaap-Se7oP-7" target="43nEJZOgeesaap-Se7oP-8">
          <mxGeometry relative="1" as="geometry">
            <mxPoint x="365" y="93" as="sourcePoint" />
            <mxPoint x="335" y="117" as="targetPoint" />
          </mxGeometry>
        </mxCell>
        <mxCell id="43nEJZOgeesaap-Se7oP-20" style="rounded=0;orthogonalLoop=1;jettySize=auto;html=1;" edge="1" parent="1" source="43nEJZOgeesaap-Se7oP-7" target="43nEJZOgeesaap-Se7oP-9">
          <mxGeometry relative="1" as="geometry">
            <mxPoint x="375" y="103" as="sourcePoint" />
            <mxPoint x="345" y="127" as="targetPoint" />
          </mxGeometry>
        </mxCell>
        <mxCell id="43nEJZOgeesaap-Se7oP-21" style="rounded=0;orthogonalLoop=1;jettySize=auto;html=1;" edge="1" parent="1" source="43nEJZOgeesaap-Se7oP-3" target="43nEJZOgeesaap-Se7oP-23">
          <mxGeometry relative="1" as="geometry">
            <mxPoint x="385" y="113" as="sourcePoint" />
            <mxPoint x="188" y="160" as="targetPoint" />
          </mxGeometry>
        </mxCell>
        <mxCell id="43nEJZOgeesaap-Se7oP-23" value="" style="ellipse;whiteSpace=wrap;html=1;aspect=fixed;fillColor=#000000;" vertex="1" parent="1">
          <mxGeometry x="170" y="160" width="10" height="10" as="geometry" />
        </mxCell>
        <mxCell id="43nEJZOgeesaap-Se7oP-25" value="" style="ellipse;whiteSpace=wrap;html=1;aspect=fixed;fillColor=#000000;" vertex="1" parent="1">
          <mxGeometry x="230" y="200" width="10" height="10" as="geometry" />
        </mxCell>
        <mxCell id="43nEJZOgeesaap-Se7oP-26" style="rounded=0;orthogonalLoop=1;jettySize=auto;html=1;" edge="1" parent="1" source="43nEJZOgeesaap-Se7oP-11" target="43nEJZOgeesaap-Se7oP-25">
          <mxGeometry relative="1" as="geometry">
            <mxPoint x="218" y="146" as="sourcePoint" />
            <mxPoint x="196" y="172" as="targetPoint" />
          </mxGeometry>
        </mxCell>
        <mxCell id="43nEJZOgeesaap-Se7oP-27" style="rounded=0;orthogonalLoop=1;jettySize=auto;html=1;" edge="1" parent="1" source="43nEJZOgeesaap-Se7oP-11" target="43nEJZOgeesaap-Se7oP-28">
          <mxGeometry relative="1" as="geometry">
            <mxPoint x="228" y="156" as="sourcePoint" />
            <mxPoint x="206" y="182" as="targetPoint" />
          </mxGeometry>
        </mxCell>
        <mxCell id="43nEJZOgeesaap-Se7oP-28" value="" style="ellipse;whiteSpace=wrap;html=1;aspect=fixed;fillColor=#000000;" vertex="1" parent="1">
          <mxGeometry x="280" y="200" width="10" height="10" as="geometry" />
        </mxCell>
        <mxCell id="43nEJZOgeesaap-Se7oP-33" value="" style="ellipse;whiteSpace=wrap;html=1;aspect=fixed;fillColor=#000000;" vertex="1" parent="1">
          <mxGeometry x="520" y="200" width="10" height="10" as="geometry" />
        </mxCell>
        <mxCell id="43nEJZOgeesaap-Se7oP-34" value="" style="ellipse;whiteSpace=wrap;html=1;aspect=fixed;fillColor=#000000;" vertex="1" parent="1">
          <mxGeometry x="470" y="200" width="10" height="10" as="geometry" />
        </mxCell>
        <mxCell id="43nEJZOgeesaap-Se7oP-35" value="" style="ellipse;whiteSpace=wrap;html=1;aspect=fixed;fillColor=#000000;" vertex="1" parent="1">
          <mxGeometry x="440" y="200" width="10" height="10" as="geometry" />
        </mxCell>
        <mxCell id="43nEJZOgeesaap-Se7oP-36" value="" style="ellipse;whiteSpace=wrap;html=1;aspect=fixed;fillColor=#000000;" vertex="1" parent="1">
          <mxGeometry x="390" y="200" width="10" height="10" as="geometry" />
        </mxCell>
        <mxCell id="43nEJZOgeesaap-Se7oP-37" style="rounded=0;orthogonalLoop=1;jettySize=auto;html=1;" edge="1" parent="1" source="43nEJZOgeesaap-Se7oP-8" target="43nEJZOgeesaap-Se7oP-36">
          <mxGeometry relative="1" as="geometry">
            <mxPoint x="282" y="196" as="sourcePoint" />
            <mxPoint x="294" y="212" as="targetPoint" />
          </mxGeometry>
        </mxCell>
        <mxCell id="43nEJZOgeesaap-Se7oP-38" style="rounded=0;orthogonalLoop=1;jettySize=auto;html=1;" edge="1" parent="1" source="43nEJZOgeesaap-Se7oP-8" target="43nEJZOgeesaap-Se7oP-35">
          <mxGeometry relative="1" as="geometry">
            <mxPoint x="282" y="196" as="sourcePoint" />
            <mxPoint x="294" y="212" as="targetPoint" />
          </mxGeometry>
        </mxCell>
        <mxCell id="43nEJZOgeesaap-Se7oP-39" style="rounded=0;orthogonalLoop=1;jettySize=auto;html=1;" edge="1" parent="1" source="43nEJZOgeesaap-Se7oP-9" target="43nEJZOgeesaap-Se7oP-34">
          <mxGeometry relative="1" as="geometry">
            <mxPoint x="292" y="206" as="sourcePoint" />
            <mxPoint x="304" y="222" as="targetPoint" />
          </mxGeometry>
        </mxCell>
        <mxCell id="43nEJZOgeesaap-Se7oP-40" style="rounded=0;orthogonalLoop=1;jettySize=auto;html=1;" edge="1" parent="1" source="43nEJZOgeesaap-Se7oP-9" target="43nEJZOgeesaap-Se7oP-33">
          <mxGeometry relative="1" as="geometry">
            <mxPoint x="302" y="216" as="sourcePoint" />
            <mxPoint x="314" y="232" as="targetPoint" />
          </mxGeometry>
        </mxCell>
        <mxCell id="43nEJZOgeesaap-Se7oP-41" value="" style="ellipse;whiteSpace=wrap;html=1;aspect=fixed;fillColor=#000000;" vertex="1" parent="1">
          <mxGeometry x="290" y="160" width="10" height="10" as="geometry" />
        </mxCell>
        <mxCell id="43nEJZOgeesaap-Se7oP-42" style="rounded=0;orthogonalLoop=1;jettySize=auto;html=1;" edge="1" parent="1" target="43nEJZOgeesaap-Se7oP-41" source="43nEJZOgeesaap-Se7oP-4">
          <mxGeometry relative="1" as="geometry">
            <mxPoint x="308" y="153" as="sourcePoint" />
            <mxPoint x="256" y="139" as="targetPoint" />
          </mxGeometry>
        </mxCell>
        <mxCell id="43nEJZOgeesaap-Se7oP-43" style="rounded=0;orthogonalLoop=1;jettySize=auto;html=1;" edge="1" parent="1" target="43nEJZOgeesaap-Se7oP-44" source="43nEJZOgeesaap-Se7oP-4">
          <mxGeometry relative="1" as="geometry">
            <mxPoint x="332" y="153" as="sourcePoint" />
            <mxPoint x="266" y="149" as="targetPoint" />
          </mxGeometry>
        </mxCell>
        <mxCell id="43nEJZOgeesaap-Se7oP-44" value="" style="ellipse;whiteSpace=wrap;html=1;aspect=fixed;fillColor=#000000;" vertex="1" parent="1">
          <mxGeometry x="320" y="160" width="10" height="10" as="geometry" />
        </mxCell>
        <mxCell id="43nEJZOgeesaap-Se7oP-45" value="" style="ellipse;whiteSpace=wrap;html=1;aspect=fixed;fillColor=#000000;" vertex="1" parent="1">
          <mxGeometry x="345" y="160" width="10" height="10" as="geometry" />
        </mxCell>
        <mxCell id="43nEJZOgeesaap-Se7oP-46" style="rounded=0;orthogonalLoop=1;jettySize=auto;html=1;" edge="1" parent="1" target="43nEJZOgeesaap-Se7oP-45" source="43nEJZOgeesaap-Se7oP-6">
          <mxGeometry relative="1" as="geometry">
            <mxPoint x="333" y="193" as="sourcePoint" />
            <mxPoint x="281" y="179" as="targetPoint" />
          </mxGeometry>
        </mxCell>
        <mxCell id="43nEJZOgeesaap-Se7oP-47" style="rounded=0;orthogonalLoop=1;jettySize=auto;html=1;" edge="1" parent="1" target="43nEJZOgeesaap-Se7oP-48" source="43nEJZOgeesaap-Se7oP-6">
          <mxGeometry relative="1" as="geometry">
            <mxPoint x="357" y="193" as="sourcePoint" />
            <mxPoint x="291" y="189" as="targetPoint" />
          </mxGeometry>
        </mxCell>
        <mxCell id="43nEJZOgeesaap-Se7oP-48" value="" style="ellipse;whiteSpace=wrap;html=1;aspect=fixed;fillColor=#000000;" vertex="1" parent="1">
          <mxGeometry x="380" y="160" width="10" height="10" as="geometry" />
        </mxCell>
      </root>
    </mxGraphModel>
  </diagram>
</mxfile>
